<mxfile host="Electron" agent="Mozilla/5.0 (Macintosh; Intel Mac OS X 10_15_7) AppleWebKit/537.36 (KHTML, like Gecko) draw.io/25.0.2 Chrome/128.0.6613.186 Electron/32.2.5 Safari/537.36" version="25.0.2">
  <diagram id="C5RBs43oDa-KdzZeNtuy" name="Page-1">
    <mxGraphModel dx="1949" dy="2024" grid="1" gridSize="10" guides="1" tooltips="1" connect="1" arrows="1" fold="1" page="1" pageScale="1" pageWidth="827" pageHeight="1169" math="0" shadow="0">
      <root>
        <mxCell id="WIyWlLk6GJQsqaUBKTNV-0" />
        <mxCell id="WIyWlLk6GJQsqaUBKTNV-1" parent="WIyWlLk6GJQsqaUBKTNV-0" />
        <mxCell id="ThWcLZxYjRYsOGCqL9PE-1" value="&lt;div&gt;&lt;br&gt;&lt;/div&gt;&lt;font style=&quot;font-size: 16px;&quot;&gt;SQLite&lt;/font&gt;" style="strokeWidth=2;html=1;shape=mxgraph.flowchart.database;whiteSpace=wrap;" vertex="1" parent="WIyWlLk6GJQsqaUBKTNV-1">
          <mxGeometry x="880" y="310" width="100" height="80" as="geometry" />
        </mxCell>
        <mxCell id="ThWcLZxYjRYsOGCqL9PE-2" value="&lt;b&gt;&lt;font style=&quot;font-size: 19px;&quot;&gt;Azure App Service&lt;/font&gt;&lt;/b&gt;" style="verticalAlign=top;align=center;spacingTop=8;spacingLeft=2;spacingRight=12;shape=cube;size=10;direction=south;fontStyle=4;html=1;whiteSpace=wrap;" vertex="1" parent="WIyWlLk6GJQsqaUBKTNV-1">
          <mxGeometry x="530" y="250" width="260" height="190" as="geometry" />
        </mxCell>
        <mxCell id="ThWcLZxYjRYsOGCqL9PE-3" value="&lt;font style=&quot;font-size: 15px;&quot;&gt;«webserver»&lt;br&gt;&lt;b style=&quot;&quot;&gt;Server&lt;/b&gt;&lt;/font&gt;" style="html=1;dropTarget=0;whiteSpace=wrap;" vertex="1" parent="WIyWlLk6GJQsqaUBKTNV-1">
          <mxGeometry x="570" y="310" width="160" height="90" as="geometry" />
        </mxCell>
        <mxCell id="ThWcLZxYjRYsOGCqL9PE-4" value="" style="shape=module;jettyWidth=8;jettyHeight=4;" vertex="1" parent="ThWcLZxYjRYsOGCqL9PE-3">
          <mxGeometry x="1" width="20" height="20" relative="1" as="geometry">
            <mxPoint x="-27" y="7" as="offset" />
          </mxGeometry>
        </mxCell>
        <mxCell id="ThWcLZxYjRYsOGCqL9PE-6" value="" style="ellipse;html=1;" vertex="1" parent="WIyWlLk6GJQsqaUBKTNV-1">
          <mxGeometry x="350" y="340" width="30" height="30" as="geometry" />
        </mxCell>
        <mxCell id="ThWcLZxYjRYsOGCqL9PE-8" value="HTTP" style="text;html=1;align=center;verticalAlign=middle;resizable=0;points=[];autosize=1;strokeColor=none;fillColor=none;" vertex="1" parent="WIyWlLk6GJQsqaUBKTNV-1">
          <mxGeometry x="340" y="370" width="50" height="30" as="geometry" />
        </mxCell>
        <mxCell id="ThWcLZxYjRYsOGCqL9PE-9" value="" style="endArrow=none;startArrow=none;endFill=0;startFill=0;endSize=8;html=1;verticalAlign=bottom;labelBackgroundColor=none;strokeWidth=3;rounded=0;" edge="1" parent="WIyWlLk6GJQsqaUBKTNV-1" target="ThWcLZxYjRYsOGCqL9PE-3">
          <mxGeometry width="160" relative="1" as="geometry">
            <mxPoint x="380" y="354.5" as="sourcePoint" />
            <mxPoint x="540" y="354.5" as="targetPoint" />
          </mxGeometry>
        </mxCell>
        <mxCell id="ThWcLZxYjRYsOGCqL9PE-11" value="" style="edgeStyle=none;orthogonalLoop=1;jettySize=auto;html=1;rounded=0;" edge="1" parent="WIyWlLk6GJQsqaUBKTNV-1">
          <mxGeometry width="100" relative="1" as="geometry">
            <mxPoint x="730" y="350" as="sourcePoint" />
            <mxPoint x="880" y="350" as="targetPoint" />
            <Array as="points" />
          </mxGeometry>
        </mxCell>
        <mxCell id="ThWcLZxYjRYsOGCqL9PE-13" value="&lt;b&gt;&lt;font style=&quot;font-size: 19px;&quot;&gt;Client Computer B&lt;/font&gt;&lt;/b&gt;" style="verticalAlign=top;align=center;spacingTop=8;spacingLeft=2;spacingRight=12;shape=cube;size=10;direction=south;fontStyle=4;html=1;whiteSpace=wrap;" vertex="1" parent="WIyWlLk6GJQsqaUBKTNV-1">
          <mxGeometry x="-60" y="250" width="260" height="190" as="geometry" />
        </mxCell>
        <mxCell id="ThWcLZxYjRYsOGCqL9PE-16" value="&lt;font style=&quot;font-size: 15px;&quot;&gt;«client»&lt;br&gt;&lt;b style=&quot;&quot;&gt;Chirp.Web&lt;/b&gt;&lt;/font&gt;" style="html=1;dropTarget=0;whiteSpace=wrap;" vertex="1" parent="WIyWlLk6GJQsqaUBKTNV-1">
          <mxGeometry x="-20" y="310" width="160" height="90" as="geometry" />
        </mxCell>
        <mxCell id="ThWcLZxYjRYsOGCqL9PE-17" value="" style="shape=module;jettyWidth=8;jettyHeight=4;" vertex="1" parent="ThWcLZxYjRYsOGCqL9PE-16">
          <mxGeometry x="1" width="20" height="20" relative="1" as="geometry">
            <mxPoint x="-27" y="7" as="offset" />
          </mxGeometry>
        </mxCell>
        <mxCell id="ThWcLZxYjRYsOGCqL9PE-10" value="Use" style="endArrow=open;endSize=12;dashed=1;html=1;rounded=0;exitX=1;exitY=0.5;exitDx=0;exitDy=0;" edge="1" parent="WIyWlLk6GJQsqaUBKTNV-1">
          <mxGeometry width="160" relative="1" as="geometry">
            <mxPoint x="140" y="354.90999999999997" as="sourcePoint" />
            <mxPoint x="350" y="354.40999999999997" as="targetPoint" />
          </mxGeometry>
        </mxCell>
        <mxCell id="ThWcLZxYjRYsOGCqL9PE-19" value="&lt;b&gt;&lt;font style=&quot;font-size: 19px;&quot;&gt;Client Computer A&lt;/font&gt;&lt;/b&gt;" style="verticalAlign=top;align=center;spacingTop=8;spacingLeft=2;spacingRight=12;shape=cube;size=10;direction=south;fontStyle=4;html=1;whiteSpace=wrap;" vertex="1" parent="WIyWlLk6GJQsqaUBKTNV-1">
          <mxGeometry x="-60" y="-40" width="260" height="190" as="geometry" />
        </mxCell>
        <mxCell id="ThWcLZxYjRYsOGCqL9PE-20" value="&lt;font style=&quot;font-size: 15px;&quot;&gt;«client»&lt;br&gt;&lt;b style=&quot;&quot;&gt;Chirp.Web&lt;/b&gt;&lt;/font&gt;" style="html=1;dropTarget=0;whiteSpace=wrap;" vertex="1" parent="WIyWlLk6GJQsqaUBKTNV-1">
          <mxGeometry x="-20" y="20" width="160" height="90" as="geometry" />
        </mxCell>
        <mxCell id="ThWcLZxYjRYsOGCqL9PE-21" value="" style="shape=module;jettyWidth=8;jettyHeight=4;" vertex="1" parent="ThWcLZxYjRYsOGCqL9PE-20">
          <mxGeometry x="1" width="20" height="20" relative="1" as="geometry">
            <mxPoint x="-27" y="7" as="offset" />
          </mxGeometry>
        </mxCell>
        <mxCell id="ThWcLZxYjRYsOGCqL9PE-22" value="&lt;b&gt;&lt;font style=&quot;font-size: 19px;&quot;&gt;Client Computer C&lt;/font&gt;&lt;/b&gt;" style="verticalAlign=top;align=center;spacingTop=8;spacingLeft=2;spacingRight=12;shape=cube;size=10;direction=south;fontStyle=4;html=1;whiteSpace=wrap;" vertex="1" parent="WIyWlLk6GJQsqaUBKTNV-1">
          <mxGeometry x="-70" y="540" width="260" height="190" as="geometry" />
        </mxCell>
        <mxCell id="ThWcLZxYjRYsOGCqL9PE-23" value="&lt;font style=&quot;font-size: 15px;&quot;&gt;«client»&lt;br&gt;&lt;b style=&quot;&quot;&gt;Chirp.Web&lt;/b&gt;&lt;/font&gt;" style="html=1;dropTarget=0;whiteSpace=wrap;" vertex="1" parent="WIyWlLk6GJQsqaUBKTNV-1">
          <mxGeometry x="-30" y="600" width="160" height="90" as="geometry" />
        </mxCell>
        <mxCell id="ThWcLZxYjRYsOGCqL9PE-24" value="" style="shape=module;jettyWidth=8;jettyHeight=4;" vertex="1" parent="ThWcLZxYjRYsOGCqL9PE-23">
          <mxGeometry x="1" width="20" height="20" relative="1" as="geometry">
            <mxPoint x="-27" y="7" as="offset" />
          </mxGeometry>
        </mxCell>
        <mxCell id="ThWcLZxYjRYsOGCqL9PE-25" value="Use" style="endArrow=open;endSize=12;dashed=1;html=1;rounded=0;exitX=1;exitY=0.5;exitDx=0;exitDy=0;entryX=0;entryY=1;entryDx=0;entryDy=0;" edge="1" parent="WIyWlLk6GJQsqaUBKTNV-1" source="ThWcLZxYjRYsOGCqL9PE-23">
          <mxGeometry width="160" relative="1" as="geometry">
            <mxPoint x="145.61" y="644.91" as="sourcePoint" />
            <mxPoint x="350.00339828220183" y="365.6066017177982" as="targetPoint" />
          </mxGeometry>
        </mxCell>
        <mxCell id="ThWcLZxYjRYsOGCqL9PE-26" value="Use" style="endArrow=open;endSize=12;dashed=1;html=1;rounded=0;exitX=1;exitY=0.5;exitDx=0;exitDy=0;" edge="1" parent="WIyWlLk6GJQsqaUBKTNV-1" source="ThWcLZxYjRYsOGCqL9PE-20">
          <mxGeometry width="160" relative="1" as="geometry">
            <mxPoint x="120" y="200.49999999999997" as="sourcePoint" />
            <mxPoint x="350" y="340" as="targetPoint" />
          </mxGeometry>
        </mxCell>
      </root>
    </mxGraphModel>
  </diagram>
</mxfile>
